<svg width="480" height="357" version="1.1" xmlns="http://www.w3.org/2000/svg" desc="Created with imagetracer.js version 1.2.6" ><path fill="rgb(0,0,0)" stroke="rgb(0,0,0)" stroke-width="1" opacity="0" d="M 0 0 L 480 0 L 480 357 L 0 357 L 0 0 Z M 213 99 L 206 104 L 200 110 L 200 114 Q 208 115 211 109 L 214 111 L 214 131 L 206 177 L 204 177 L 196 183 L 192 184 L 189 183 L 185 176 L 185 162 L 189 142 L 189 127 L 185 122 L 181 123 L 170 130 L 169 133 Q 168 136 171 137 Q 177 138 178 134 Q 181 133 182 136 L 180 159 L 179 160 L 179 180 L 182 188 L 187 191 Q 201 193 206 184 L 206 188 L 211 191 L 214 186 L 214 181 L 218 168 L 227 151 L 236 143 L 237 149 L 238 177 L 240 182 L 247 186 Q 253 187 255 184 L 256 188 L 262 191 Q 277 193 283 185 L 289 175 L 292 163 L 292 142 L 290 137 L 286 133 Q 275 133 270 137 Q 254 148 255 176 Q 254 179 248 178 L 244 172 L 244 140 L 242 134 Q 240 132 235 133 Q 224 140 219 153 L 216 155 L 222 125 L 222 112 L 219 102 Q 218 98 213 99 Z M 181 100 L 180 105 L 181 107 L 186 107 L 186 105 L 186 103 L 186 100 L 181 100 Z M 139 102 L 137 104 L 137 117 L 140 133 Q 141 141 137 145 L 119 157 L 84 169 Q 79 168 81 174 L 83 175 L 96 175 L 125 180 L 131 180 L 132 181 L 138 181 L 139 182 L 145 182 L 147 185 L 146 189 L 128 205 L 121 214 L 118 226 L 118 248 L 119 249 L 120 260 Q 125 278 136 291 L 144 297 L 149 296 L 154 289 L 158 271 L 158 233 L 157 232 L 157 220 L 156 219 L 156 202 L 155 201 Q 154 194 156 192 L 163 189 L 156 188 L 154 187 L 154 175 L 153 174 L 150 125 L 145 107 L 143 103 L 139 102 Z M 351 125 Q 338 128 332 136 L 328 133 Q 317 133 312 137 Q 302 144 299 158 L 297 168 L 297 186 L 304 191 Q 316 193 322 188 Q 328 183 331 176 L 334 165 L 334 156 L 335 155 L 334 146 L 337 144 L 343 137 L 350 132 L 355 133 L 357 138 L 357 146 L 355 153 L 355 158 L 350 179 L 350 190 L 354 191 L 357 188 Q 364 167 375 151 L 385 142 L 384 154 L 380 171 Q 378 185 386 190 Q 397 190 402 183 L 408 177 L 408 173 L 403 174 L 392 182 L 387 182 L 386 180 L 386 173 L 393 147 L 393 134 L 392 131 L 390 130 L 383 133 Q 368 146 360 166 L 359 166 L 364 144 L 364 129 L 363 126 Q 359 124 351 125 Z " /><path fill="rgb(0,0,0)" stroke="rgb(0,0,0)" stroke-width="1" opacity="0" d="M 280 139 Q 283.8 138.3 285 141.5 L 286 143.5 L 286 162.5 L 281 176.5 L 276.5 181 L 272.5 183 L 263.5 184 L 261 183 L 261 169.5 L 269 147 L 276.5 145 L 280 142.5 L 280 139 Z " /><path fill="rgb(0,0,0)" stroke="rgb(0,0,0)" stroke-width="1" opacity="0" d="M 323 139 L 328 142.5 L 329 156.5 Q 326.3 158.2 328 164.5 L 325 173.5 L 318.5 181 L 315.5 183 L 305.5 184 L 303 183 L 303 170.5 L 305 162.5 L 310 149.5 L 313.5 146 L 319.5 145 L 322 142.5 L 323 139 Z " /><path fill="rgb(0,0,0)" stroke="rgb(0,0,0)" stroke-width="1" opacity="0" d="M 140.5 150 Q 145.1 148.7 143 154.5 Q 146.3 161.9 145 173 Q 141.1 175.4 131.5 174 L 130.5 173 L 107 170.5 L 140.5 150 Z " /><path fill="rgb(0,0,0)" stroke="rgb(0,0,0)" stroke-width="1" opacity="0" d="M 146.5 196 L 149 197.5 L 151 207.5 L 151 216.5 L 152 217.5 L 152 265.5 L 149 282.5 L 144.5 289 Q 133.4 280.1 128 265.5 L 124 248.5 L 124 229.5 L 131 208.5 L 140.5 198 L 146.5 196 Z " /><path fill="rgb(0,0,0)" stroke="rgb(0,0,0)" stroke-width="1" opacity="0.9647058823529412" d="M 212.5 99 Q 218 98 219 101.5 L 222 111.5 L 222 124.5 L 217 148.5 L 217 153.5 L 219 152.5 Q 224.2 140.3 234.5 133 Q 239.9 132.4 242 134 L 244 139.5 L 244 171.5 L 247.5 178 Q 253.8 179.3 255 175.5 Q 254.3 148.3 269.5 137 Q 275.1 132.6 285.5 133 L 290 136.5 L 292 141.5 L 292 162.5 L 289 174.5 L 282.5 185 Q 277.1 193.1 261.5 191 L 256 188 L 255 184 Q 252.7 186.6 246.5 186 L 240 181.5 L 238 176.5 L 237 148.5 L 236 143 L 227 150.5 L 218 167.5 L 214 180.5 L 214 185.5 L 210.5 191 L 206 187.5 L 205.5 184 Q 201 192.5 186.5 191 L 182 187.5 L 179 179.5 L 179 159.5 L 180 158.5 L 182 135.5 Q 181.3 133.3 177.5 134 Q 176.5 138 170.5 137 Q 168.3 136.3 169 132.5 L 170 130 L 180.5 123 L 184.5 122 L 189 126.5 L 189 141.5 L 185 161.5 L 185 175.5 L 188.5 183 L 191.5 184 L 195.5 183 L 203.5 177 L 206 177 L 214 130.5 L 214 110.5 L 210.5 109 Q 207.6 114.8 200 114 L 200 109.5 L 205.5 104 L 212.5 99 Z M 280 139 L 280 143 L 277 145 L 269 147 L 261 170 L 261 183 L 264 184 L 273 183 L 277 181 L 281 177 L 286 163 L 286 144 L 285 142 Q 284 138 280 139 Z " /><path fill="rgb(0,0,0)" stroke="rgb(0,0,0)" stroke-width="1" opacity="0.9647058823529412" d="M 181 100 L 186 100 L 186 102.5 L 186 104.5 L 186 107 L 181 107 L 180 104.5 L 181 100 Z " /><path fill="rgb(0,0,0)" stroke="rgb(0,0,0)" stroke-width="1" opacity="0.9647058823529412" d="M 138.5 102 L 143 103 L 145 106.5 L 150 124.5 L 153 173.5 L 154 174.5 L 154 186.5 L 155.5 188 L 163 188.5 L 156 192 Q 154.3 194.4 155 200.5 L 156 201.5 L 156 218.5 L 157 219.5 L 157 231.5 L 158 232.5 L 158 270.5 L 154 288.5 L 148.5 296 L 143.5 297 L 136 290.5 Q 124.8 278.2 120 259.5 L 119 248.5 L 118 247.5 L 118 225.5 L 121 213.5 L 127.5 205 L 146 188.5 L 147 184.5 L 144.5 182 L 138.5 182 L 137.5 181 L 131.5 181 L 130.5 180 L 124.5 180 L 95.5 175 L 82.5 175 L 81 173.5 Q 78.9 167.7 83.5 169 L 118.5 157 L 137 144.5 Q 141 141 140 132.5 L 137 116.5 L 137 103.5 L 138.5 102 Z M 141 150 L 107 171 L 131 173 L 132 174 Q 141 175 145 173 Q 146 162 143 155 Q 145 149 141 150 Z M 147 196 L 141 198 L 131 209 L 124 230 L 124 249 L 128 266 Q 133 280 145 289 L 149 283 L 152 266 L 152 218 L 151 217 L 151 208 L 149 198 L 147 196 Z " /><path fill="rgb(0,0,0)" stroke="rgb(0,0,0)" stroke-width="1" opacity="0.9647058823529412" d="M 350.5 125 Q 359.4 123.7 363 126 L 364 128.5 L 364 143.5 L 359 165.5 L 360 165.5 Q 367.6 145.6 382.5 133 L 389.5 130 L 392 131 L 393 133.5 L 393 146.5 L 386 172.5 L 386 179.5 L 387 182 L 391.5 182 L 402.5 174 L 408 173 L 408 176.5 L 401.5 183 Q 396.7 189.7 385.5 190 Q 377.8 185.2 380 170.5 L 384 153.5 L 385 141.5 L 375 150.5 Q 364.3 167.3 357 187.5 L 353.5 191 L 350 189.5 L 350 178.5 L 355 157.5 L 355 152.5 L 357 145.5 L 357 137.5 L 354.5 133 L 349.5 132 L 343 136.5 L 336.5 144 L 334 145.5 L 335 154.5 L 334 155.5 L 334 164.5 L 331 175.5 Q 327.8 183.3 321.5 188 Q 315.7 192.7 303.5 191 L 297 185.5 L 297 167.5 L 299 157.5 Q 302.4 144.4 311.5 137 Q 317.1 132.6 327.5 133 L 331.5 136 Q 338.1 127.6 350.5 125 Z M 323 139 L 322 143 L 320 145 L 314 146 L 310 150 L 305 163 L 303 171 L 303 183 L 306 184 L 316 183 L 319 181 L 325 174 L 328 165 Q 326 158 329 157 L 328 143 L 323 139 Z " /></svg>